<svg xmlns="http://www.w3.org/2000/svg" width="480pt" height="290pt" viewBox="0 0 480 290" version="1.1" xmlns:xlink="http://www.w3.org/1999/xlink">
  <g id="surface2" transform="matrix(1.566259920434969,0,0,1.566259920434969,-136.96864082482753,-24.595912680017197)">
    <path style="stroke:none;fill-rule:evenodd;fill:rgb(62.745098%,80.784314%,30.588235%);fill-opacity:1" d="M 235.250000 35.398438 C 235.882812 34.765625 236.582031 34.132812 237.351562 33.500000 L 228.148438 24.351562 L 218.449219 34.050781 L 227.500000 43.148438 L 235.250000 35.398438 "/>
    <path style="stroke:none;fill-rule:evenodd;fill:rgb(62.745098%,80.784314%,30.588235%);fill-opacity:1" d="M 245.800781 150.800781 C 245.234375 151.367188 244.601562 151.949219 243.898438 152.550781 L 252.351562 160.949219 L 262.050781 151.250000 L 253.699219 142.898438 L 245.800781 150.800781 "/>
    <path style="stroke:none;fill-rule:evenodd;fill:rgb(62.745098%,80.784314%,30.588235%);fill-opacity:1" d="M 299.300781 97.300781 L 287.851562 108.750000 C 287.550781 110.917969 286.648438 112.765625 285.148438 114.300781 C 284.214844 115.199219 283.183594 115.882812 282.050781 116.351562 C 281.183594 116.714844 280.285156 116.933594 279.351562 117.000000 C 278.851562 117.066406 278.316406 117.082031 277.750000 117.050781 C 277.449219 117.015625 277.199219 117.000000 277.000000 117.000000 C 276.933594 116.964844 276.851562 116.949219 276.750000 116.949219 C 276.582031 116.917969 276.398438 116.882812 276.199219 116.851562 L 275.898438 116.750000 C 275.734375 116.714844 275.566406 116.667969 275.398438 116.601562 C 275.265625 116.566406 275.132812 116.515625 275.000000 116.449219 L 273.800781 115.898438 C 273.667969 115.832031 273.535156 115.765625 273.398438 115.699219 L 273.250000 115.601562 L 273.000000 115.449219 C 272.867188 115.351562 272.714844 115.234375 272.550781 115.101562 L 272.300781 114.898438 C 272.066406 114.699219 271.832031 114.500000 271.601562 114.300781 L 253.699219 96.398438 L 244.000000 106.101562 L 261.898438 124.000000 C 262.433594 124.535156 263.000000 125.050781 263.601562 125.550781 C 263.699219 125.648438 263.816406 125.734375 263.949219 125.800781 L 264.800781 126.449219 C 265.000000 126.617188 265.199219 126.750000 265.398438 126.851562 C 265.601562 126.984375 265.800781 127.117188 266.000000 127.250000 L 266.550781 127.550781 C 266.785156 127.714844 267.035156 127.867188 267.300781 128.000000 C 267.535156 128.132812 267.785156 128.265625 268.050781 128.398438 L 268.601562 128.648438 C 268.800781 128.750000 269.015625 128.851562 269.250000 128.949219 C 269.582031 129.082031 269.898438 129.199219 270.199219 129.300781 L 270.699219 129.500000 C 270.867188 129.566406 271.050781 129.632812 271.250000 129.699219 C 271.683594 129.832031 272.117188 129.949219 272.550781 130.050781 L 272.800781 130.101562 C 272.964844 130.167969 273.148438 130.214844 273.351562 130.250000 C 273.816406 130.351562 274.285156 130.433594 274.750000 130.500000 L 275.000000 130.550781 C 275.132812 130.550781 275.265625 130.566406 275.398438 130.601562 C 275.933594 130.667969 276.449219 130.714844 276.949219 130.750000 L 277.500000 130.750000 C 278.066406 130.785156 278.632812 130.785156 279.199219 130.750000 L 279.601562 130.750000 C 280.199219 130.714844 280.785156 130.648438 281.351562 130.550781 L 281.699219 130.550781 C 282.300781 130.449219 282.898438 130.332031 283.500000 130.199219 L 283.750000 130.148438 C 284.382812 129.984375 285.000000 129.800781 285.601562 129.601562 C 286.367188 129.367188 287.050781 129.117188 287.648438 128.851562 C 288.351562 128.515625 289.000000 128.183594 289.601562 127.851562 C 290.265625 127.515625 290.898438 127.132812 291.500000 126.699219 C 291.535156 126.699219 291.566406 126.683594 291.601562 126.648438 C 292.199219 126.214844 292.750000 125.800781 293.250000 125.398438 L 293.500000 125.148438 C 293.800781 124.917969 294.082031 124.683594 294.351562 124.449219 L 294.601562 124.250000 C 294.667969 124.148438 294.750000 124.066406 294.851562 124.000000 C 298.351562 120.367188 300.500000 116.148438 301.300781 111.351562 C 302.101562 106.550781 301.433594 101.867188 299.300781 97.300781 "/>
    <path style="stroke:none;fill-rule:evenodd;fill:rgb(255,255,255);fill-opacity:1" d="M 203.750000 73.699219 L 172.949219 104.500000 L 182.648438 114.199219 L 214.000000 82.851562 L 206.148438 74.949219 C 205.484375 74.316406 204.683594 73.898438 203.750000 73.699219 "/>
    <path style="stroke:none;fill-rule:evenodd;fill:rgb(255,255,255);fill-opacity:1" d="M 230.449219 66.398438 L 248.351562 48.550781 C 250.316406 46.683594 252.566406 45.750000 255.101562 45.750000 C 257.632812 45.714844 259.882812 46.648438 261.851562 48.550781 C 263.382812 50.082031 264.300781 51.917969 264.601562 54.050781 L 276.050781 65.500000 C 278.183594 60.964844 278.851562 56.285156 278.050781 51.449219 C 277.250000 46.648438 275.101562 42.433594 271.601562 38.800781 C 266.800781 34.265625 261.300781 32.000000 255.101562 32.000000 C 248.898438 32.000000 243.398438 34.265625 238.601562 38.800781 L 220.648438 56.800781 C 221.316406 57.367188 221.949219 57.949219 222.550781 58.550781 L 230.449219 66.398438 "/>
    <path style="stroke:none;fill-rule:evenodd;fill:rgb(255,255,255);fill-opacity:1" d="M 250.800781 119.648438 L 232.750000 137.699219 C 230.851562 139.535156 228.582031 140.464844 225.949219 140.500000 C 223.351562 140.464844 221.101562 139.535156 219.199219 137.699219 C 217.601562 136.066406 216.683594 134.101562 216.449219 131.800781 L 205.148438 120.500000 C 202.949219 125.066406 202.234375 129.785156 203.000000 134.648438 C 203.765625 139.484375 205.933594 143.734375 209.500000 147.398438 C 214.066406 151.867188 219.550781 154.132812 225.949219 154.199219 C 232.382812 154.132812 237.882812 151.867188 242.449219 147.398438 L 260.601562 129.250000 C 259.867188 128.648438 259.167969 128.015625 258.500000 127.351562 L 250.800781 119.648438 "/>
    <path style="stroke:none;fill-rule:evenodd;fill:rgb(255,255,255);fill-opacity:1" d="M 277.648438 112.250000 L 309.050781 80.800781 L 299.351562 71.101562 L 267.250000 103.199219 L 274.949219 110.898438 C 275.714844 111.632812 276.617188 112.082031 277.648438 112.250000 "/>
    <path style="stroke:none;fill-rule:evenodd;fill:rgb(62.745098%,80.784314%,30.588235%);fill-opacity:1" d="M 205.898438 69.398438 C 206.066406 69.433594 206.214844 69.484375 206.351562 69.550781 C 206.449219 69.582031 206.535156 69.617188 206.601562 69.648438 L 206.851562 69.750000 C 206.949219 69.816406 207.066406 69.882812 207.199219 69.949219 C 207.300781 69.984375 207.398438 70.035156 207.500000 70.101562 L 207.699219 70.250000 C 207.800781 70.285156 207.898438 70.332031 208.000000 70.398438 C 208.132812 70.500000 208.265625 70.601562 208.398438 70.699219 L 208.550781 70.800781 L 208.750000 70.949219 C 209.015625 71.183594 209.265625 71.398438 209.500000 71.601562 L 227.500000 89.648438 L 237.250000 79.949219 L 219.199219 61.898438 C 218.632812 61.332031 218.050781 60.800781 217.449219 60.300781 C 217.316406 60.199219 217.183594 60.101562 217.050781 60.000000 L 216.398438 59.550781 C 216.132812 59.351562 215.851562 59.148438 215.550781 58.949219 C 215.351562 58.816406 215.132812 58.683594 214.898438 58.550781 L 213.601562 57.750000 C 213.265625 57.617188 212.949219 57.484375 212.648438 57.351562 L 212.000000 57.050781 C 211.867188 56.949219 211.714844 56.867188 211.550781 56.800781 C 211.117188 56.632812 210.683594 56.484375 210.250000 56.351562 L 209.800781 56.199219 C 209.667969 56.167969 209.535156 56.117188 209.398438 56.050781 C 208.867188 55.917969 208.316406 55.785156 207.750000 55.648438 L 207.250000 55.550781 C 206.648438 55.417969 206.035156 55.316406 205.398438 55.250000 C 205.332031 55.250000 205.265625 55.250000 205.199219 55.250000 C 204.398438 55.148438 203.683594 55.101562 203.050781 55.101562 L 202.851562 55.101562 C 202.117188 55.101562 201.398438 55.132812 200.699219 55.199219 C 195.167969 55.734375 190.433594 57.898438 186.500000 61.699219 C 186.433594 61.734375 186.382812 61.765625 186.351562 61.800781 C 186.285156 61.867188 186.214844 61.933594 186.148438 62.000000 C 182.648438 65.667969 180.515625 69.917969 179.750000 74.750000 C 178.984375 79.582031 179.699219 84.265625 181.898438 88.800781 L 193.199219 77.500000 C 193.433594 75.265625 194.316406 73.332031 195.851562 71.699219 L 196.101562 71.500000 C 196.964844 70.667969 197.882812 70.050781 198.851562 69.648438 C 199.582031 69.316406 200.316406 69.082031 201.050781 68.949219 C 201.351562 68.917969 201.648438 68.882812 201.949219 68.851562 C 202.316406 68.816406 202.617188 68.816406 202.851562 68.851562 C 203.214844 68.851562 203.515625 68.867188 203.750000 68.898438 C 203.816406 68.898438 203.882812 68.898438 203.949219 68.898438 C 204.148438 68.933594 204.382812 68.964844 204.648438 69.000000 C 204.683594 69.035156 204.734375 69.050781 204.800781 69.050781 C 205.101562 69.117188 205.332031 69.183594 205.500000 69.250000 L 205.750000 69.300781 L 205.898438 69.398438 "/>
    <path style="stroke:none;fill-rule:evenodd;fill:rgb(62.745098%,80.784314%,30.588235%);fill-opacity:1" d="M 237.250000 126.398438 L 227.500000 116.699219 C 227.234375 116.332031 227.234375 115.984375 227.500000 115.648438 L 263.300781 79.898438 C 263.632812 79.601562 263.964844 79.601562 264.300781 79.898438 L 274.050781 89.601562 L 283.750000 79.898438 L 254.398438 50.550781 C 253.332031 50.714844 252.449219 51.148438 251.750000 51.851562 L 244.000000 59.601562 L 253.550781 69.148438 C 253.851562 69.484375 253.851562 69.832031 253.550781 70.199219 L 217.800781 105.949219 C 217.464844 106.214844 217.117188 106.214844 216.750000 105.949219 L 207.199219 96.398438 L 197.500000 106.101562 L 227.000000 135.601562 C 227.898438 135.367188 228.683594 134.933594 229.351562 134.300781 L 237.250000 126.398438 "/>
  </g>
</svg>
